<svg xmlns="http://www.w3.org/2000/svg" viewBox="0 0 71.08 55.21"><defs><style>.cls-1{fill:#231f20;}</style></defs><title>Asset 7</title><g id="Layer_2" data-name="Layer 2"><g id="Layer_1-2" data-name="Layer 1"><path class="cls-1" d="M22.53,7.23A9.75,9.75,0,0,0,23.1,5a2.8,2.8,0,0,0-.27-1.83L22.77,3s-.1-.12,0,0a1.1,1.1,0,0,0-.3-.12,4.84,4.84,0,0,0-1-.18,6.46,6.46,0,0,0-2.09.2,7.27,7.27,0,0,0-3.55,2.25A12.6,12.6,0,0,0,13.6,8.91a10.29,10.29,0,0,0-.94,4.17,3.36,3.36,0,0,0,1.87,3.1,4.32,4.32,0,0,0,1.94.34,5.32,5.32,0,0,0,1-.15,4.13,4.13,0,0,0,.5-.15l.53-.12a11.48,11.48,0,0,0,4.13-2,10,10,0,0,1-3.56,3.38,6.48,6.48,0,0,1-5.27.13,4.68,4.68,0,0,1-2.08-1.88A5.45,5.45,0,0,1,11,13.15a11.84,11.84,0,0,1,1.05-4.82,14.42,14.42,0,0,1,2.55-4.21A8.85,8.85,0,0,1,19,1.4a7.81,7.81,0,0,1,2.64-.25A6.08,6.08,0,0,1,23,1.39a2.85,2.85,0,0,1,.78.36,2.33,2.33,0,0,1,.4.44,2.64,2.64,0,0,1,.2.37A3.55,3.55,0,0,1,24,5.27,8,8,0,0,1,22.53,7.23Z"/><path class="cls-1" d="M32,6.28a18.83,18.83,0,0,1-.53,2.44c-.4.7-.75,1.41-1.13,2.12s-.76,1.43-1.09,2.11a12.49,12.49,0,0,0-.71,2.14l-.17.79-.74-.33A18.83,18.83,0,0,0,25,14.64a20,20,0,0,0-2.75-.56A13.53,13.53,0,0,0,19.52,14a24,24,0,0,0-2.89-.28,10.1,10.1,0,0,1,2.84-1,19.84,19.84,0,0,1,3,.16,21.81,21.81,0,0,1,5.75,1.58l-.91.46a12.69,12.69,0,0,1,.79-2.42c.37-.76.75-1.44,1.12-2.16S30,8.83,30.32,8.11A17.25,17.25,0,0,1,32,6.28Z"/><path class="cls-1" d="M24.92,6.92c-.55,1.69-.82,3.76-1.46,5.4l-2.6,4.55L15.68,26l-5.13,9.14L8,39.7,4.84,44a51.17,51.17,0,0,1,1.65-5L9,34.32l5.14-9.14,5.18-9.12,2.59-4.56C23,10.1,23.74,8.27,24.92,6.92Z"/><path class="cls-1" d="M.14,55c-.61-1.69.92-4.57,2.53-7.38C4,45.3,24.92,6.92,24.92,6.92h.59l.85,1.93L3.68,48.13c-1,1.79-2.94,5.11-2.45,6.48Z"/><path class="cls-1" d="M17.88,26h-.73l-.52-.52s2.35-3.78,3.11-5.35a6.77,6.77,0,0,0-.66.33l-.59-1c1.72-1,2.2-.59,2.36-.45A.87.87,0,0,1,21,20.1a4.55,4.55,0,0,1,2.4-1.58,1.61,1.61,0,0,1,1.31.61,2.67,2.67,0,0,1,.47,1.6A3.54,3.54,0,0,1,27.71,19a2.89,2.89,0,0,1,2.28.91,1.6,1.6,0,0,1,.33.43,7.45,7.45,0,0,1,1.12-1.05,3.13,3.13,0,0,1,2.6-.84,2.73,2.73,0,0,1,1.56.5,2.25,2.25,0,0,1,.52.91c.17-.4.56-1.18.56-1.18A2.9,2.9,0,0,1,39,17.12a1,1,0,0,1,.87.27c.79.75.74,2.41.66,3.07a1.92,1.92,0,0,0,.25,1.18c.55.22,4-1.11,7.26-3l.56,1c-2.12,1.12-7.2,3.71-8.53,3.35-.89-.24-1.08-1.44-.91-2.27,0-1.19.12-2-.19-2-.52-.14-.83.25-1.12.79l-.09.16A6.66,6.66,0,0,0,37,23a11.3,11.3,0,0,1-.1,1.24l-2,.19a12.08,12.08,0,0,0,.28-1.37,4.17,4.17,0,0,0-.49-3.16.46.46,0,0,0-.32-.18,2.61,2.61,0,0,0-2,.61,5.27,5.27,0,0,0-1.42,3.05c0,.26-.05.53-.1.82l-.63.23-1.14-.32s.16-.63.24-1.11c.07-1.19.33-1.87-.16-2.4a1.64,1.64,0,0,0-1.38-.54c-1.33,0-2.75,3-3.38,4.88l-.15.46h-.83l-.27-.33a4.44,4.44,0,0,1,.15-.46C24.42,21,24,20,23.79,19.8a.4.4,0,0,0-.36-.16C22.62,19.66,19.91,22.93,17.88,26Z"/><path class="cls-1" d="M48.31,18.73c-.12-.36,1-.93,1.56-1.43s1.07-.84,1.24-1.41-.5-.85-.65-.89A11.8,11.8,0,0,0,48,14.81c-.67,0-2.42.3-2.51.71s.13.82.49,1.23a4.83,4.83,0,0,0,1.44,1.12l.53.33.46.33c.31.22.61.45.91.71a6.77,6.77,0,0,1,1.59,1.86,2.4,2.4,0,0,1,.31,1.41,1.47,1.47,0,0,1-.35.83,1.78,1.78,0,0,1-.68.47,9.8,9.8,0,0,1-2.79.5c-.76,0-2.72,0-3.33-.74-.35-.43-.1-1.06,0-1.42a4.49,4.49,0,0,1,.43-1.1,3.2,3.2,0,0,1,.91-.75c.33-.2.65-.37,1-.54s-.21.62-.48.85-1,1.08-.77,1.82c.44.54,1.63.4,2.71.44s2.18-.05,2.06-.47a1.54,1.54,0,0,0-.23-.66,9.69,9.69,0,0,0-3.06-2.54,6.84,6.84,0,0,1-2-1.46A2.8,2.8,0,0,1,44,16.43a3.11,3.11,0,0,1,0-1.48,2.65,2.65,0,0,1,1-1.2,7.76,7.76,0,0,1,4-.49c.81.08,2.61.73,3,1.48A1.6,1.6,0,0,1,52,16a4.33,4.33,0,0,1-1.55,1.81C49.78,18.25,48.49,19.26,48.31,18.73Z"/><path class="cls-1" d="M55.06,17.1c-.47,0-.5-.66.07-1.06a5.81,5.81,0,0,1,1-.29l1.05-.22c.21-.06,1.59-.25,1.59-.46s-1-.38-1.56-.43c-1.11-.09-3,0-4.24.07a6.35,6.35,0,0,0-2.64.79,1.57,1.57,0,0,0-.73.82,1.44,1.44,0,0,0-.07.55c0,.25,0,.5,0,.75a6.39,6.39,0,0,0,.9,2.75,7.46,7.46,0,0,0,5,3.08,14.19,14.19,0,0,0,3.19.28,6.84,6.84,0,0,0,3-.64,2.14,2.14,0,0,0,1.23-2.17,13,13,0,0,0-1-3c-1.24-2.76-4.54-5.34-3-5.9,1-.38,3,3.34,4,5.44a12.57,12.57,0,0,1,1,3.31,3,3,0,0,1-.24,1.94,3.61,3.61,0,0,1-1.35,1.44,8,8,0,0,1-3.56,1A15.94,15.94,0,0,1,55.2,25,8.83,8.83,0,0,1,49,21.24a7.36,7.36,0,0,1-1.14-3.48c0-.3,0-.6,0-.9A2.81,2.81,0,0,1,48,15.79a3.21,3.21,0,0,1,1.43-1.65,8.67,8.67,0,0,1,3.58-1,21.84,21.84,0,0,1,3.52-.06c1.15.07,2.3.19,3.44.37.57.1,1.14.2,1.72.35a4.6,4.6,0,0,1,.47.14,1.46,1.46,0,0,1,.21.11.52.52,0,0,1,.09.75,1,1,0,0,1-.34.24,6.41,6.41,0,0,1-.89.28,27.75,27.75,0,0,1-3.12.76l-1.77.32a4,4,0,0,0-.75.14C55.37,16.62,55.64,17.1,55.06,17.1Z"/><path class="cls-1" d="M47.72,54.91l-1.16.3-.2-.93c0-.05,2.76-5.64,3.28-6.83S55,37.38,56,35.73c1-1.5,7-12.77,8.17-15.26a52.28,52.28,0,0,0,2.7-9,1.69,1.69,0,0,1,2-1.61h.2l.29,0h0a6.06,6.06,0,0,0,.16-1.78,5.4,5.4,0,0,0-2.11-4,11.59,11.59,0,0,0-8-2.59c-1.75.22-2.63.33-2.63,3.24,0,3.11,3.35,8.09,3.39,8.14l-1.28.63c-.15-.22-3.62-5.21-3.62-8.77,0-3.88,1.71-4.41,4-4.69A13.11,13.11,0,0,1,68.46,3a6.7,6.7,0,0,1,2.62,5.09c0,1.69-.18,2.49-.67,2.92a1.45,1.45,0,0,1-1.17.31h-.41a2.17,2.17,0,0,0-.38,0,1.84,1.84,0,0,0-.1.37,53.89,53.89,0,0,1-2.82,9.41C64.31,23.6,58.25,35,57.28,36.49S51.52,46.88,51,48c-.31.72-1.57,2.85-2.22,4.66C48.38,53.88,48.55,54.9,47.72,54.91Z"/></g></g></svg>