<svg xmlns="http://www.w3.org/2000/svg" viewBox="0 0 65.39 53.75"><title>Asset 16</title><g id="Layer_2" data-name="Layer 2"><g id="Layer_1-2" data-name="Layer 1"><path d="M30.57,2.13S31.07.06,30.3,0,28.68-.21,28.5,2.9s-.31,4.81-.31,4.81a19.56,19.56,0,0,0-2.93-1s1.4-3.42,1.62-3.92,1.11-2-.22-2.2-.77,1-1.94,2.29a18.85,18.85,0,0,1-3.24,3c-.49.18-2.61.45-2.34,1.66s1.8.5,2.21.41A10.91,10.91,0,0,1,23,7.89s-3.71,7.38-3.85,7.61a34.85,34.85,0,0,0-3,5.26C15.72,22.07,9.56,33,9.51,33.18a5.54,5.54,0,0,1-.54,1S7.08,38,6.63,38.63c-.21.27-1.78,2.7-2.43,4-.27.53-1.82,2.53-1.89,2.7A41.25,41.25,0,0,0,0,53a.61.61,0,0,0,.67.77,1.74,1.74,0,0,0,1.76-1.58A29.26,29.26,0,0,1,4.38,46.1c.86-1.62,2.75-4.64,3.33-5.9s4.68-8.82,5.49-10.48S19,18.83,19.91,17.12L24.5,8.39s2.61-.41,3.15,1.84l.58.09s.05-.45.45-.36.45.27.45.27l.63,0S29.4,5.33,30.57,2.13Z"/><path d="M22.4,16s1.2-.23,1.63-3.5c.15-1.14,1.49-.49,1.49-.49s.3.69.69.78c.23.05.4-.22.78-.66a2.21,2.21,0,0,1,2.4-.83c.33.27,1.11.44,1.11,1.19s.36-.78,1.08-1a2.77,2.77,0,0,1,3.06,2.94c0,.33.84-.81,1.44-1.35s2.8-2.36,3.9-.66c.78,1.2,0,3-.12,3.57s-.09.93.51.87.37,1.2-.06,1.53S38,19.46,37.49,18c-.27-.78.39-1.41.6-1.86s1.14-2.76.48-2.76-2.1.18-4,4.35c-.17.36-2,.3-2.16-.48s.63-1,.66-2.43-.33-1.71-1-1.62S31,14.44,30.73,14.79c-.62.78-.29,3.09-1.88,2.82s-1.26-1.17-.93-1.65,1.71-2.22,1.23-2.79-1.8.33-2.16.66a9,9,0,0,0-2.43,2.91C23.81,18.33,21.44,17.64,22.4,16Z"/><path d="M46.48,15.24a3.75,3.75,0,0,1-1.78-.16c-.49-.31-.74-.88-1.48-.58s-.52.76-.45,1.1.24,1.15,1.64,1.19,4.48-.27,4.71-1.32-.35-1.78-1.43-2.46-1.46-.94-1.41-1.15.9-.54,1.53-.72a8.33,8.33,0,0,1,1.39-.24s.68-.49.29-.54c-1-.14-.78-.88-1.37-.86s-1.13.45-2.64.61-3,0-3.16.63A1.18,1.18,0,0,0,43,12.36c.86.43,2.81,1.24,3.29,1.55s1,.41,1,.74S47,15.08,46.48,15.24Z"/><path d="M65.29.52c-.11-.31-1-.4-1.67.25a27.57,27.57,0,0,1-3.53,2.41C59.3,3.61,57.26,4.3,57.41,5a7.64,7.64,0,0,0,.79,1.53,5.51,5.51,0,0,1,.47,2.55c-.06,1.48-.22,2.7-1.73,3.46a7.5,7.5,0,0,1-5.58.23c-.79-.36,0-.43,0-.43s3-.74,3.64-1,1.44-.58,1.44-1.23A3.46,3.46,0,0,0,54,7.77c-1.17-.09-3.84-.55-4.52.83s-1,3.38.09,4.55,4.07,1.57,5.33,1.32a16.41,16.41,0,0,0,2.72-.85s-2,3.94-2.56,5.13-2.39,5.2-2.93,6.43S49,31.37,48.53,32.83s-1.65,5.43-2,5.88-.66,1-.12,1.37,1.6.83,1.89.49.32-2.31.68-3.66a48.37,48.37,0,0,1,2.52-7.23c.83-1.46,2.9-6.54,3.28-7.31s2.77-5.94,3.63-7.58,3.66-6.8,4-7.43l2.73-4.79A3.5,3.5,0,0,0,65.29.52Zm-14.72,10c.14-.65,1-1.17,2.28-1.24a2.51,2.51,0,0,1,1.91.59l.09.36a10.23,10.23,0,0,0-1.53.31c-.74.23-2.14.63-2.3.63S50.44,11.14,50.57,10.49ZM62.43,4c-.27.36-.63,1.17-1.53,2.85s-1.12,1.8-1.12,1.8S59.69,8,59.6,7a3.58,3.58,0,0,1,0-1.44A.91.91,0,0,1,60.11,5c.23-.09,2.61-1.73,2.61-1.73A1.46,1.46,0,0,1,62.43,4Z"/></g></g></svg>