<svg xmlns="http://www.w3.org/2000/svg" viewBox="0 0 107.25 34.76"><defs><style>.cls-1{fill:#231f20;}</style></defs><title>Asset 1</title><g id="Layer_2" data-name="Layer 2"><g id="Layer_2-2" data-name="Layer 2"><path class="cls-1" d="M16.74,11.3c-.23-1-.38-2-.51-2.93A3.75,3.75,0,0,1,16.31,7l.19-1.41,1.14,1.12A23.53,23.53,0,0,0,13,8,11.66,11.66,0,0,0,10.87,9,10.88,10.88,0,0,0,9,10.46c-1.13,1-2,2.46-1.54,3.28l.07.17.14.15a1,1,0,0,0,.3.31,3.72,3.72,0,0,1,.77.7c.29.27.64.5,1,.77s.73.46,1.12.7c-.44.05-.9.1-1.36.12a11.73,11.73,0,0,1-1.41-.13l-.73-.19c-.26,0-.43-.29-.65-.44a3,3,0,0,1-.58-.59L5.84,15c-.07-.13-.13-.28-.19-.41l-.18-.42-.08-.45a2.66,2.66,0,0,1,0-.89A3.32,3.32,0,0,1,5.56,12a3.21,3.21,0,0,1,.31-.73A8,8,0,0,1,7.64,9,13.28,13.28,0,0,1,9.81,7.34a14,14,0,0,1,2.41-1.23,25.26,25.26,0,0,1,5.12-1.42l1.14,1.12-.19,1.4A3.72,3.72,0,0,1,18,8.6C17.62,9.51,17.22,10.41,16.74,11.3Z"/><path class="cls-1" d="M1,34.69a1,1,0,0,1-.61-.21,1,1,0,0,1-.18-1.41c10-12.8,13.2-22.64,13.24-22.73a1,1,0,0,1,1.25-.65A1,1,0,0,1,15.35,11C15.22,11.36,12,21.2,1.79,34.3A1,1,0,0,1,1,34.69Z"/><path class="cls-1" d="M18.42,19.07l-1.89-.65c0-.06.12-.42.32-1a1.94,1.94,0,0,0-.28-1.75c-1.1-1.25-4.54-1-6-.78a2.76,2.76,0,0,1-.52.12l-1.16-.58.3-1.18a1.86,1.86,0,0,1,.54-.2h0a15.55,15.55,0,0,0,3.57-1.67,1,1,0,0,1,1.37.35c.21.35-3.88,1.78-4.1,2.09,1.09.15,6.18-.55,6.93,0a3.57,3.57,0,0,1,.51.45,41.24,41.24,0,0,1,3.42-6.69l1.82.71-.75,4.4c-.09.55-.67,1.11-1.15.82-.89-.53.17-2.62,0-2.83-.92,2-2.25,6.25-2.6,7.31A10.43,10.43,0,0,1,18.42,19.07Z"/><path class="cls-1" d="M.41,33.14a63.93,63.93,0,0,1,4.23-4.91A30.84,30.84,0,0,1,7,26a14.78,14.78,0,0,1,4.29-2.24c-1,.35-2.88,2.22-3.59,3S6,29.05,5.35,29.91c-1.2,1.73-1.78,2.34-3.26,4.32v0a1,1,0,1,1-1.75-1Z"/><path class="cls-1" d="M54.53,21.12a1,1,0,0,0-1.22-.72c-9.32,2.43-9.37,3.89-9.4,4.51s.47,1.26,1.43,1.87l-1.81,1.13h0c-2.91,2.08-5.13,1.35-5.22,1.32l-.11,0a3.87,3.87,0,0,1,0-1.6c.1-.92.2-1.87-.58-2.35s-1.78.11-4.79,2.37L31.36,28.7c.23-1.17.32-2.83-1.39-3.34-.78-.23-1.57.26-4.87,2.63l-1.55,1.1c.46-1.4.65-3.18-1.15-4-1.34-.6-3.39.71-6.6,3l-.16.11a2.65,2.65,0,0,0,.21-2.09,1.61,1.61,0,0,0-1.13-.92c-.63-.17-1.26.11-4.53,2l0,0c.46-.95,1-2.07,1.54-3.09a1,1,0,0,0-1.78-.92c-3.17,6.17-3,6.3-2.36,6.87s1,.35,3.61-1.14c.75-.42,1.85-1,2.61-1.42-.19.4-.45.87-.61,1.15-.57,1-.94,1.68-.59,2.36a1.1,1.1,0,0,0,.9.6c.67.08,1.37-.38,3.47-1.84C18.22,28.8,20.83,27,21.63,27c.44.25.31,1-.46,2.71-.38.86-.86,1.94.14,2.45a1.1,1.1,0,0,0,.53.14c.69,0,1.7-.67,4.43-2.64,1-.74,2.53-1.82,3.22-2.19a5.74,5.74,0,0,1-.22,1.46c-.21.86-.53,2.16.64,2.55.76.26,1.48-.24,4.08-2.19.65-.48,1.49-1.12,2.16-1.57-.12,1.17-.19,3,1.5,3.48a7.58,7.58,0,0,0,5.72-.79,6.79,6.79,0,0,0,4.1,1.18A9.68,9.68,0,0,0,50.66,31c1.12-.41,1.71-1,1.76-1.69.08-1.17-1.34-1.87-3.69-3l-.23-.11,4-3.5,1.33-.36A1,1,0,0,0,54.53,21.12Zm-6.68,7c.63.3,1.47.72,2,1.06a8.09,8.09,0,0,1-2.59.37,5.38,5.38,0,0,1-2.12-.43l1.69-1.49Zm-.58-2.54A10.4,10.4,0,0,1,46.22,25a29.09,29.09,0,0,1,5.09-1.93Z"/><path class="cls-1" d="M100.86,18.79c-2.13-.21-4.25-.51-6.37-.82-4.22-.63-8.45-1.38-12.63-2.2h0c-4.4-.61-6.69-2.4-6.59-3.41.13-1.33,1.41-2.17,2.44-2.85l.24-.16c1-.64,5.69-4,4.64-7C81.9.55,78.41-.11,70.11,0h-.86C65.57,0,64.33,1.12,63.9,2.1c-.58,1.31,0,2.9,1.74,4.73,2.67,2.83,3.57,6.9,4.11,10.52.24,1.65-1.33,5-4.06,7.25-1.35,1.13-4.07,2.88-7.13,1.85-1.92-.63-2.44-1.26-2.44-1.53s.26-.65.7-1c.47.13,1,.26,1.44.36a9.05,9.05,0,0,0,.93.13l.49,0a1.36,1.36,0,0,0,.63-.13,2,2,0,0,0,.86-.9,5.37,5.37,0,0,0,.4-1A9.82,9.82,0,0,0,62,20.62a1.1,1.1,0,0,0,0-.16v0h0a1.41,1.41,0,0,0,0-.29,1,1,0,0,0-1.17-.83,1.05,1.05,0,0,0-.63.38c-1.88.76-6.12,2.73-6.07,5.28,0,2.14,2.88,3.08,3.81,3.39a7.88,7.88,0,0,0,2.53.41A10.19,10.19,0,0,0,67,26.13c3-2.55,5.12-6.53,4.74-9.08-.57-3.92-1.58-8.37-4.63-11.59-1.25-1.32-1.52-2.19-1.36-2.56S67.07,2,69.22,2h.92c9-.13,10.33.78,10.52,1C81,4.05,79,6.25,76.8,7.69l-.23.15c-1.24.81-3.11,2.05-3.33,4.33C73,14.74,76.4,17,81.54,17.75h0c4.27.5,8.53.91,12.82,1.22,2.14.14,4.29.28,6.44.32a27.06,27.06,0,0,0,6.42-.41A27.32,27.32,0,0,1,100.86,18.79Zm-41,4.64c0,.08-.39.16-.65.21a6.22,6.22,0,0,1-.88.11c-.44,0-.89,0-1.34,0a15,15,0,0,1,3.17-1.88v.22A2.5,2.5,0,0,1,59.81,23.43Z"/></g></g></svg>