<svg xmlns="http://www.w3.org/2000/svg" viewBox="0 0 104.61 40.99"><defs><style>.cls-1{fill:#231f20;}</style></defs><title>Asset 2</title><g id="Layer_2" data-name="Layer 2"><g id="Layer_2-2" data-name="Layer 2"><path class="cls-1" d="M24.92,10.07c-.2-.88-.34-1.74-.46-2.61a3.4,3.4,0,0,1,.08-1.27l.17-1.25,1,1A20.54,20.54,0,0,0,21.57,7.1a10.73,10.73,0,0,0-1.88,1A10.36,10.36,0,0,0,18,9.32c-1,.9-1.76,2.2-1.37,2.93l.06.15.12.14a1,1,0,0,0,.28.27,3.23,3.23,0,0,1,.68.63c.26.24.57.44.87.68s.65.41,1,.63c-.39,0-.8.08-1.21.1a7.77,7.77,0,0,1-1.25-.12l-.65-.16c-.24,0-.39-.26-.58-.4a2.56,2.56,0,0,1-.52-.52l-.24-.31A4,4,0,0,1,15,13l-.16-.38-.07-.4a2.1,2.1,0,0,1,0-.79,2.44,2.44,0,0,1,.16-.72,3.17,3.17,0,0,1,.27-.65,7.27,7.27,0,0,1,1.58-2,11.39,11.39,0,0,1,1.94-1.47,11.78,11.78,0,0,1,2.15-1.1,21.73,21.73,0,0,1,4.56-1.27l1,1-.16,1.25a3.36,3.36,0,0,1-.26,1.24A26.09,26.09,0,0,1,24.92,10.07Z"/><path class="cls-1" d="M.89,40.92a1,1,0,0,1-.55-.18.9.9,0,0,1-.15-1.25C9.07,28.07,22,9.3,22,9.21a.89.89,0,1,1,1.69.55c-.11.37-13,19.14-22.08,30.82A.88.88,0,0,1,.89,40.92Z"/><path class="cls-1" d="M26.42,17l-1.69-.58c0-.05.12-.38.29-.9A1.68,1.68,0,0,0,24.77,14c-1-1.12-4-.91-5.34-.69a3.33,3.33,0,0,1-.47.1l-1-.51.26-1.06a1.65,1.65,0,0,1,.48-.18h0a13.25,13.25,0,0,0,3.18-1.48.91.91,0,0,1,1.23.31c.18.31-3.46,1.59-3.66,1.86,1,.13,5.51-.48,6.18,0a3.47,3.47,0,0,1,.46.41,36.24,36.24,0,0,1,3-6l1.63.63-.67,3.93c-.08.48-.6,1-1,.73-.79-.48.15-2.34,0-2.53-.82,1.8-2,5.57-2.32,6.52A6.71,6.71,0,0,1,26.42,17Z"/><path class="cls-1" d="M.37,39.55C1.56,38,12.54,26.15,13.87,24.76a22.61,22.61,0,0,1,2-1.87,9,9,0,0,1,3.2-1.53,10.06,10.06,0,0,0-2.83,2.38c-.62.7-4.36,4.82-4.9,5.58-1.5,1.86-8.2,9.43-9.52,11.2h0a.9.9,0,1,1-1.57-.87A.44.44,0,0,1,.37,39.55Z"/><path class="cls-1" d="M57.61,18.82a.89.89,0,0,0-1.09-.63c-8.3,2.17-8.35,3.46-8.37,4s.41,1.12,1.27,1.66l-1.61,1h0A11.21,11.21,0,0,1,43,27.12c-.19-.25-.07-1.26-.07-1.26A8.9,8.9,0,0,1,43,24.62c.1-.82.19-1.67-.51-2.09s-1.58.1-4.27,2.11L37,25.59c.21-1.05.29-2.53-1.23-3-.7-.21-1.4.23-4.34,2.34l-1.38,1c.41-1.25.58-2.83-1-3.56-1.2-.54-3,.63-5.88,2.63l-.15.1a2.34,2.34,0,0,0,.19-1.86,1.44,1.44,0,0,0-1-.82c-.55-.15-1.12.1-4,1.74l0,0c.4-.85.9-1.85,1.37-2.76a.89.89,0,0,0-1.59-.82c-3.13,6.43-4.39,7.69-2.93,8,.71.18,1.7-1.61,4.05-2.94.67-.37,1.65-.93,2.32-1.26-.16.35-.39.77-.54,1-.5.9-1.43,2.49-1.12,3.09a1.46,1.46,0,0,0,.93.72c.6.07,1.69-1.51,3.56-2.82,1.13-.79,3.46-2.42,4.17-2.44.39.23.27.9-.41,2.42-.34.77-1.38,2.38-.48,2.84a3.38,3.38,0,0,0,.9,0c.62,0,1.69-1.14,4.13-2.89.92-.66,2.25-1.62,2.87-2a4.88,4.88,0,0,1-.2,1.3c-.19.77-.23,3.06.81,3.41.68.23,1.08-1.34,3.41-3.08.57-.43,1.32-1,1.92-1.4-.11,1-.41,3.74,1.1,4.16a13,13,0,0,0,5.34-1.77,5.94,5.94,0,0,0,3.65,1.06,8.63,8.63,0,0,0,2.85-.47c1-.36,1.52-.87,1.56-1.5.07-1-1.19-1.67-3.29-2.7a1.86,1.86,0,0,1-.2-.1l3.54-3.11L57,19.91A.89.89,0,0,0,57.61,18.82Zm-6,6.24c.56.27,1.31.64,1.83.94a7.17,7.17,0,0,1-2.31.33,4.79,4.79,0,0,1-1.9-.38l1.51-1.32Zm-.52-2.26c-.35-.19-.69-.37-.93-.53a25.39,25.39,0,0,1,4.53-1.72Z"/><path class="cls-1" d="M98.91,16.75c-1.89-.19-3.78-.45-5.67-.73q-5.65-.86-11.27-2h0c-3.92-.55-6-2.14-5.87-3,.11-1.19,1.25-1.94,2.17-2.54l.22-.14c.85-.57,5.07-3.55,4.13-6.22C82,.49,78.9-.1,71.5,0h-.76C67.45,0,66.35,1,66,1.87,65.45,3,66,4.46,67.51,6.09c2.38,2.52,3.19,6.15,3.67,9.37.22,1.48-1.18,4.43-3.62,6.47-1.2,1-3.63,2.56-6.35,1.65C59.5,23,59,22.46,59,22.22s.23-.58.63-.93c.42.12.84.23,1.27.32a7.71,7.71,0,0,0,.84.11,3.17,3.17,0,0,0,.44,0,1.17,1.17,0,0,0,.56-.11,1.86,1.86,0,0,0,.76-.8,4.58,4.58,0,0,0,.36-.87,9.27,9.27,0,0,0,.35-1.58.68.68,0,0,0,0-.14v0h0a1,1,0,0,0,0-.25.89.89,0,0,0-1-.74.94.94,0,0,0-.56.34c-1.68.67-5.45,2.43-5.41,4.7,0,1.91,2.56,2.75,3.39,3a7,7,0,0,0,2.26.37,9.11,9.11,0,0,0,5.81-2.35c2.71-2.27,4.57-5.82,4.23-8.09-.51-3.49-1.41-7.46-4.13-10.33C67.7,3.69,67.45,2.92,67.6,2.59s1.2-.83,3.11-.79h.82c8-.12,9.21.69,9.38.91.31.9-1.53,2.86-3.44,4.14L77.26,7c-1.1.73-2.77,1.82-3,3.86-.22,2.29,2.82,4.34,7.4,5h0q5.7.66,11.42,1.08c1.92.13,3.83.25,5.75.28a24.33,24.33,0,0,0,5.72-.36A23.64,23.64,0,0,1,98.91,16.75ZM62.32,20.89c0,.07-.35.14-.58.19s-.52.08-.78.1-.8,0-1.2,0a13.62,13.62,0,0,1,2.82-1.68c0,.07,0,.14,0,.2A2.26,2.26,0,0,1,62.32,20.89Z"/></g></g></svg>