<svg xmlns="http://www.w3.org/2000/svg" viewBox="0 0 70.12 57.05"><defs><style>.cls-1,.cls-2,.cls-3,.cls-4{fill:none;stroke:#231f20;stroke-miterlimit:10;}.cls-1,.cls-3,.cls-4{stroke-linecap:round;}.cls-1{stroke-width:1.7px;}.cls-2,.cls-4{stroke-width:1.8px;}.cls-3{stroke-width:1.6px;}</style></defs><title>Asset 14</title><g id="Layer_2" data-name="Layer 2"><g id="Layer_1-2" data-name="Layer 1"><path class="cls-1" d="M.85,56.2S16.15,30.56,24.79,9.34c.63-1.54-.45.64-2.26,2.73-1.35,1.56-3.68,2.25-3.45,2.51S29,13.09,28.51,16s-.26-4,1.81-9.63"/><path class="cls-2" d="M34.78,26.47c0-.19,0-.4,0-.62-.09-1.8-.62-4.38-3.18-4.43-2.34-.05-3.26,4.42-3.47,4.41-.63,0-.38-4.53-3.09-4.53-3,0-2.49,5.17-2.49,5.17"/><line class="cls-3" x1="21.96" y1="20.67" x2="21.81" y2="25.79"/><path class="cls-4" d="M39.65,25.72s1.07-4.55-1.22-4.66c-2-.1-3.45,1.51-3.65,4"/><path class="cls-1" d="M43.11,52.65s5.82-7.79,9.42-21.35S69.25,1.59,69.25,1.59s1,2.22-10.85,4.55c-3.17.62,7.33,3.43,6.84,8.35-.51,5.29-5.19,4.19-7.55,4.49-8.73,1.09-8.28-5.12-3.69-6a28.78,28.78,0,0,1,7-.19"/><path class="cls-4" d="M61.54,12.8s-7.95,1.55-10.9,2.42c-1.26.38-5.48-.14-5.61.38-.4,1.56,4.32,2.15,3.63,4.42-1.35,4.42-7.56,3.37-6.71-.66"/></g></g></svg>