<svg xmlns="http://www.w3.org/2000/svg" viewBox="0 0 85.82 57.52"><defs><style>.cls-1{fill:#231f20;}.cls-2{fill:none;stroke:#231f20;stroke-miterlimit:10;stroke-width:2px;}</style></defs><title>Asset 11</title><g id="Layer_2" data-name="Layer 2"><g id="Layer_1-2" data-name="Layer 1"><path class="cls-1" d="M30.84,9.22a8.61,8.61,0,0,0,2.81-2.64,2,2,0,0,0,.28-1.44A2.74,2.74,0,0,0,33.1,4a5.49,5.49,0,0,0-.53-.54,3.9,3.9,0,0,0-.71-.37,10.55,10.55,0,0,0-1.75-.57,18.66,18.66,0,0,0-11.19.83,15.6,15.6,0,0,0-6,4.45c-1.6,2-3,4.22-2.78,6.5a6.81,6.81,0,0,0,4.07,5.32,12.92,12.92,0,0,0,7.24,1.18,15,15,0,0,0,1.89-.15c.75-.12,1-.08,1.33-.54a12.52,12.52,0,0,0,.92-1.7,3.15,3.15,0,0,1,1.46-1.47,2.9,2.9,0,0,0-.9,1.68,12.54,12.54,0,0,1-.49,2,2.22,2.22,0,0,1-.83,1,2.87,2.87,0,0,1-.6.31l-.49.19a17.42,17.42,0,0,1-2.06.59,15.07,15.07,0,0,1-8.37-1.4,10.61,10.61,0,0,1-3.46-2.73,7.74,7.74,0,0,1-1.7-4.21A8.61,8.61,0,0,1,9,10.05,17.78,17.78,0,0,1,11.39,6.5a17.58,17.58,0,0,1,6.76-5A20,20,0,0,1,26.41,0a19.8,19.8,0,0,1,4.18.55,13.73,13.73,0,0,1,2.06.67,5.8,5.8,0,0,1,1.06.57L34,2l.22.2a3.25,3.25,0,0,1,.42.41A4,4,0,0,1,35.54,5a3.31,3.31,0,0,1-1,2.27A8.19,8.19,0,0,1,30.84,9.22Z"/><path class="cls-1" d="M37.55,10.29c0,.88-1.27,3.21-2,4.67A31.35,31.35,0,0,0,34,18.55l-.29,1.08-1-.39a35.29,35.29,0,0,0-6.06-1.89c-2-.36-4.89,0-6-.22A19.19,19.19,0,0,1,27,15.9a32,32,0,0,1,3.23.55,25.8,25.8,0,0,1,3.17.93l-1.34.7A11,11,0,0,1,33,15.69c.42-.72.82-1.33,1.23-2A17.71,17.71,0,0,1,37.55,10.29Z"/><path class="cls-1" d="M30.15,11.29c-.62,1.63-1.32,3.19-2,4.76l-2.86,4.2-5.69,8.41L13.93,37.1l-2.78,4.24L7.64,45.12a45.11,45.11,0,0,1,1.83-4.87L12.26,36l5.65-8.45,5.69-8.43,2.85-4.2C27.65,13.68,28.85,12.45,30.15,11.29Z"/><path class="cls-2" d="M31.09,11.44S7.26,46.61,5.81,48.73s-5.36,7-4.75,8.4"/><path class="cls-1" d="M22.3,31a3.37,3.37,0,0,1-1.2,0,3.75,3.75,0,0,1-.54-1s1.88-3.68,2.85-5.77l-1-1.53c2.09-1.32,2.79-.74,3-.55a1.23,1.23,0,0,1,.4.63A3.82,3.82,0,0,1,28,21.53a2,2,0,0,1,1.71.81,3,3,0,0,1,.53,1.23,3.52,3.52,0,0,1,2.5-1.49,3.42,3.42,0,0,1,2.73,1.13,3.67,3.67,0,0,1,.46.63,5.6,5.6,0,0,1,.92-1.09,4.29,4.29,0,0,1,3.33-1.08,2.25,2.25,0,0,1,1.83,1.39c.11-.23.23-.46.35-.7l.1-.19a3.63,3.63,0,0,1,2.64-2.34,1.44,1.44,0,0,1,1.25.4c1,.91.84,3.31.69,4.66a8.4,8.4,0,0,0,0,1.66,46.13,46.13,0,0,0,7.8-4.78L56,23.39c-5.26,3.8-8.55,5.54-9.78,5.18-1-.31-1.42-1.62-1.16-3.9a11,11,0,0,0,0-2.73,3.12,3.12,0,0,0-.81,1.16l-.1.2a12.22,12.22,0,0,0-1.37,4.24c0,.56,0,1.05-.06,1.38a4,4,0,0,1-1,.55,3.18,3.18,0,0,1-1-.54,9.08,9.08,0,0,1,0-1.43c0-2-.34-3.67-.73-3.83a2.36,2.36,0,0,0-1.84.57,6.2,6.2,0,0,0-1.53,3.5c0,.33-.06.68-.11,1.05,0,0-.85.7-1.08.68s-.91-.85-.91-.85,0-.45.1-1.05c.11-1.84-.35-2.67-.67-3a1.42,1.42,0,0,0-1.17-.48c-1,0-2.5,2.86-3.35,5.59-.06.21-.13.42-.19.63a5.48,5.48,0,0,1-1.31.2c-.24-.07-.61-.76-.61-.76q.06-.23.18-.63c1.36-4.73.58-5.57.57-5.57C27.3,23.74,24.63,27.16,22.3,31Z"/><path class="cls-1" d="M55.46,22.83a14.89,14.89,0,0,0,2.06-1.5c.6-.52,1.15-1.26,1-1.72,0-.1,0-.06-.12-.15a1.85,1.85,0,0,0-.36-.2A4.56,4.56,0,0,0,57,19a10.09,10.09,0,0,0-2.33,0,4.13,4.13,0,0,0-1.92.64.73.73,0,0,0-.18.2,1,1,0,0,0-.1.29.57.57,0,0,0,.12.46,5,5,0,0,0,1.71,1.14c.19.09.39.18.64.32l.5.25c.38.17.78.35,1.17.55A13.28,13.28,0,0,1,59,24.29a2.53,2.53,0,0,1,1,1.63,1.58,1.58,0,0,1-.13.72,1.71,1.71,0,0,1-.37.5,3.41,3.41,0,0,1-.74.48,12.33,12.33,0,0,1-5.42.56,10,10,0,0,1-2.66-.47,2.65,2.65,0,0,1-1.26-.86,1.55,1.55,0,0,1-.25-.83,1.84,1.84,0,0,1,0-.41l.06-.19a.73.73,0,0,1,.13-.23,3,3,0,0,1,1.25-.73c.41-.16.83-.28,1.24-.41l1.24-.35a2.74,2.74,0,0,0,1.15-.52,2.83,2.83,0,0,1-1.08.71l-1.17.53c-.39.17-.78.35-1.15.55a3,3,0,0,0-.91.64l0,0,0,.12a.91.91,0,0,0,0,.23.63.63,0,0,0,.14.38,1.85,1.85,0,0,0,.89.49,9,9,0,0,0,2.41.27,13.54,13.54,0,0,0,2.48-.22,7.51,7.51,0,0,0,2.22-.68,1.07,1.07,0,0,0,.31-.24s0,0,0,0,0,.11,0,.1a2.38,2.38,0,0,0-.45-.44,10.68,10.68,0,0,0-2.08-1.1L54.67,24c-.2-.1-.4-.18-.66-.32s-.32-.16-.51-.25A5.74,5.74,0,0,1,51,21.72a2.59,2.59,0,0,1-.43-2,3.1,3.1,0,0,1,.35-.91,2.6,2.6,0,0,1,.69-.74,5.58,5.58,0,0,1,2.93-.86,8.74,8.74,0,0,1,2.79.27,5.64,5.64,0,0,1,1.38.54,2.39,2.39,0,0,1,.68.55,1.5,1.5,0,0,1,.36,1,2.24,2.24,0,0,1-.71,1.48,5.12,5.12,0,0,1-1.13.83A9.56,9.56,0,0,1,55.46,22.83Z"/><path class="cls-1" d="M63.37,20.92c1.19-.15,2.39-.18,3.55-.35a13.74,13.74,0,0,0,1.72-.32,3.93,3.93,0,0,0,1.45-.62c.33-.31.32-.5.09-.93A2,2,0,0,0,69.07,18a11.45,11.45,0,0,0-3.3-.48,18.71,18.71,0,0,0-6.66,1c-1,.38-2,1-2.17,1.6,0,.08-.06.14-.06.22a2.19,2.19,0,0,0,0,.29,4.68,4.68,0,0,0,.06.76,4.94,4.94,0,0,0,.41,1.42c.83,1.79,2.84,2.93,5,3.44a16.57,16.57,0,0,0,6.68.29,3.21,3.21,0,0,0,2.38-1.41c.33-.7-.22-1.88-.71-2.9-1-2.09-4.9-6.67-5.92-8.75.24.27,1.14,1.62,1.44,1.94a63.54,63.54,0,0,1,5.34,6.33,11.28,11.28,0,0,1,.88,1.65,3.12,3.12,0,0,1,.21,2.16,3.33,3.33,0,0,1-1.4,1.71,6.62,6.62,0,0,1-1.85.79,13.12,13.12,0,0,1-3.76.42,18.25,18.25,0,0,1-3.73-.39,11.21,11.21,0,0,1-3.6-1.43,7.46,7.46,0,0,1-2.75-3,6.85,6.85,0,0,1-.56-2,7,7,0,0,1-.06-1,3.45,3.45,0,0,1,0-.6,2.83,2.83,0,0,1,.18-.63,3.89,3.89,0,0,1,1.51-1.76,8,8,0,0,1,1.81-.89A18.59,18.59,0,0,1,65.86,16a11.91,11.91,0,0,1,3.69.82,3.08,3.08,0,0,1,1.65,1.41,1.9,1.9,0,0,1,.19,1.21,1.65,1.65,0,0,1-.73,1,4.62,4.62,0,0,1-1.87.59,12.65,12.65,0,0,1-1.83.11C65.75,21.13,64.56,21,63.37,20.92Z"/><path class="cls-1" d="M63,54.92l-1.41.71.3-1.86c.09-.09,2.91-5.58,7.32-19.44C71.55,27,75.79,17,76.17,15c.31-1.63.31-1.63,2.17-1.57h.43c2.64,0,4.71-.44,5.13-.86a1,1,0,0,0,.32-.78,4.84,4.84,0,0,0-1.55-3.64c-1.52-1.45-4.9-3.09-12.41-2.72-1.89.09-5.67.82-5.76,3.31-.2,5.11,5.59,10.86,6.6,12.39l-3.88-4.05c-.17-.2-4-4.87-4-8.24,0-3.69,4.39-4.89,7-5,6.39-.32,11.08.78,13.58,3.16a6.49,6.49,0,0,1,2,4.8,2.6,2.6,0,0,1-.8,1.92c-1.41,1.39-5.32,1.34-6.28,1.32H78.3a1.74,1.74,0,0,0-.48,0s-4.52,11.56-7.25,20C66.16,48.64,63.11,54.83,63,54.92Z"/></g></g></svg>