<svg xmlns="http://www.w3.org/2000/svg" viewBox="0 0 90.46 57.56"><defs><style>.cls-1{fill:#231f20;}.cls-2{fill:none;stroke:#231f20;stroke-miterlimit:10;stroke-width:2px;}</style></defs><title>Asset 12</title><g id="Layer_2" data-name="Layer 2"><g id="Layer_1-2" data-name="Layer 1"><path class="cls-1" d="M34.4,9.22a10,10,0,0,0,3.19-2.65,1.72,1.72,0,0,0,.33-1.47,3,3,0,0,0-1-1.18l-.33-.32a1.51,1.51,0,0,0-.31-.2A6,6,0,0,0,35.47,3a14.51,14.51,0,0,0-1.94-.53,23.37,23.37,0,0,0-12.21.73,17.82,17.82,0,0,0-6.84,4.33c-1.87,2-3.61,4.33-3.37,6.73a5.37,5.37,0,0,0,1.55,3.22,10,10,0,0,0,3.23,2.17,16,16,0,0,0,8,1.1,20.15,20.15,0,0,0,2.05-.13l.51-.07.26,0,.18,0a1.32,1.32,0,0,0,.64-.33,9.18,9.18,0,0,0,1-1.75,3.31,3.31,0,0,1,1.63-1.51,3,3,0,0,0-1.06,1.75,8.88,8.88,0,0,1-.67,2.2,2.51,2.51,0,0,1-1.05,1L27,22l-.26.09-.54.18a18.14,18.14,0,0,1-2.2.55,18.71,18.71,0,0,1-8.95-1.3,11.94,11.94,0,0,1-3.88-2.62,7.37,7.37,0,0,1-2.09-4.42,8.13,8.13,0,0,1,1.14-4.7,18.69,18.69,0,0,1,2.79-3.61,19.69,19.69,0,0,1,7.6-4.81A24.48,24.48,0,0,1,29.49,0,25,25,0,0,1,34,.53a16.6,16.6,0,0,1,2.21.62,7.83,7.83,0,0,1,1.13.5,4.21,4.21,0,0,1,.59.38,6,6,0,0,1,.48.4,3.84,3.84,0,0,1,1.19,2.45,3.09,3.09,0,0,1-1.09,2.45A9.19,9.19,0,0,1,34.4,9.22Z"/><path class="cls-1" d="M41.9,10.29c0,.88-1.42,3.22-2.28,4.67A30.13,30.13,0,0,0,38,18.55l-.32,1.08-1.18-.39a42.81,42.81,0,0,0-6.77-1.89c-2.29-.36-5.48,0-6.73-.22a23.39,23.39,0,0,1,7.16-1.22,36.1,36.1,0,0,1,3.61.54,31.51,31.51,0,0,1,3.55.93l-1.49.7a10.37,10.37,0,0,1,1-2.39c.48-.72.92-1.33,1.38-2A18.91,18.91,0,0,1,41.9,10.29Z"/><path class="cls-1" d="M33.62,11.29c-.74,1.65-1.57,3.22-2.4,4.8L28,20.28l-6.36,8.41-6.31,8.44-3.12,4.24C11,42.62,9.69,43.84,8.43,45.12a46.26,46.26,0,0,1,2.19-4.92l3.13-4.26,6.32-8.45,6.36-8.42,3.19-4.2C30.92,13.65,32.22,12.43,33.62,11.29Z"/><path class="cls-2" d="M34.68,11.44S8,46.61,6.38,48.73s-6,7-5.31,8.4"/><path class="cls-1" d="M24.84,31a4.2,4.2,0,0,1-1.34,0c-.21-.1-.61-1-.61-1s2.1-3.68,3.19-5.77L25,22.72c2.34-1.32,3.12-.74,3.38-.55a1.21,1.21,0,0,1,.45.63,4.42,4.42,0,0,1,2.44-1.27,2.39,2.39,0,0,1,1.92.81,2.71,2.71,0,0,1,.58,1.23,4.12,4.12,0,0,1,2.81-1.49,4,4,0,0,1,3,1.13,3.51,3.51,0,0,1,.52.64,5.29,5.29,0,0,1,1-1.1,5.21,5.21,0,0,1,3.73-1.08A2.51,2.51,0,0,1,47,23.06c.12-.23.25-.46.39-.7l.11-.19a3.91,3.91,0,0,1,2.95-2.34,1.75,1.75,0,0,1,1.4.4c1.06.91.94,3.31.77,4.66a7.1,7.1,0,0,0,0,1.66,53.68,53.68,0,0,0,8.73-4.78l1.31,1.62c-5.89,3.8-9.57,5.54-10.94,5.18-1.16-.31-1.6-1.62-1.31-3.9a9.72,9.72,0,0,0,0-2.73,3.18,3.18,0,0,0-.9,1.16l-.12.2a11.18,11.18,0,0,0-1.53,4.24c0,.57,0,1.05-.07,1.39a4.77,4.77,0,0,1-1.11.54,3.75,3.75,0,0,1-1.12-.54,7.82,7.82,0,0,1,.05-1.43c0-2-.38-3.67-.81-3.83a2.87,2.87,0,0,0-2.07.57,6,6,0,0,0-1.71,3.5q0,.5-.12,1.05s-1,.7-1.2.68-1-.85-1-.85,0-.45.12-1.05c.12-1.84-.4-2.67-.75-3a1.66,1.66,0,0,0-1.32-.47c-1.11,0-2.79,2.85-3.75,5.58-.07.21-.13.42-.21.63a6.73,6.73,0,0,1-1.46.2c-.27-.07-.69-.76-.69-.76l.21-.63c1.52-4.73.65-5.57.64-5.57C30.44,23.74,27.45,27.16,24.84,31Z"/><path class="cls-1" d="M62,22.83a17.73,17.73,0,0,0,2.32-1.5,5.32,5.32,0,0,0,.93-.9,1.1,1.1,0,0,0,.3-.85,1.72,1.72,0,0,0-.64-.34A5.77,5.77,0,0,0,63.65,19a13.08,13.08,0,0,0-2.58,0,5.29,5.29,0,0,0-2.21.66.88.88,0,0,0-.24.22.39.39,0,0,0-.06.13l-.05.15c0,.17,0,.23.18.44a6.58,6.58,0,0,0,2,1.16l.34.15.33.16.59.26c.43.17.87.35,1.3.55a13.36,13.36,0,0,1,2.63,1.47,3.63,3.63,0,0,1,.65.65,1.75,1.75,0,0,1,.37,1.26,1.56,1.56,0,0,1-.77,1.09,3.54,3.54,0,0,1-.79.38,15.91,15.91,0,0,1-5.82.46,11.51,11.51,0,0,1-2.87-.45,3.05,3.05,0,0,1-1.39-.82A1.37,1.37,0,0,1,55,26a1.3,1.3,0,0,1,.06-.44,1,1,0,0,1,.27-.46,3.86,3.86,0,0,1,1.37-.67c.45-.15.9-.28,1.36-.4l1.35-.34a3.25,3.25,0,0,0,1.27-.52,1.38,1.38,0,0,1-.56.42l-.64.29-1.3.52c-.44.17-.87.35-1.28.54a3.84,3.84,0,0,0-1.07.65.68.68,0,0,0-.08.4.6.6,0,0,0,.17.38,2.3,2.3,0,0,0,1,.5,12.13,12.13,0,0,0,2.66.26,17.47,17.47,0,0,0,2.71-.2,11.11,11.11,0,0,0,2.51-.64,2.56,2.56,0,0,0,.45-.26c.13-.08.11-.19,0,0s0,.06-.08,0a2,2,0,0,0-.36-.31,12.41,12.41,0,0,0-2.31-1.12l-1.29-.49-.7-.29-.3-.14L60,23.54a7.15,7.15,0,0,1-2.75-1.64,2.67,2.67,0,0,1-.55-.95,2.26,2.26,0,0,1-.06-1.18,3.53,3.53,0,0,1,.16-.52,2.93,2.93,0,0,1,.26-.48A2.66,2.66,0,0,1,57.8,18a6.52,6.52,0,0,1,3.13-.81,10.64,10.64,0,0,1,3,.25A7.17,7.17,0,0,1,65.4,18a3.38,3.38,0,0,1,.74.47,1.53,1.53,0,0,1,.55,1,2.15,2.15,0,0,1-.78,1.64,6,6,0,0,1-1.26.82A10.75,10.75,0,0,1,62,22.83Z"/><path class="cls-1" d="M69.73,21.06c1.33-.15,3.73-.61,5-.77.66-.09,1.25-.2,1.87-.34a5,5,0,0,0,1.13-.35c.38-.31.51-.38.25-.81s-1-.55-1.52-.72a9.45,9.45,0,0,0-3-.56,23.25,23.25,0,0,0-7.46,1c-1.1.38-2.19,1-2.42,1.6a.94.94,0,0,0-.07.22,2.19,2.19,0,0,0,0,.29,3.78,3.78,0,0,0,.06.76,4.48,4.48,0,0,0,.47,1.42c.92,1.79,3.17,2.93,5.57,3.44a20.66,20.66,0,0,0,7.47.29,3.7,3.7,0,0,0,2.67-1.41c.37-.69-.25-1.88-.79-2.9-.66-1.19-3.2-3.58-5.16-5.31-1.42-1.24-1.23-2.44-1.72-3.33L74,15.44a65.71,65.71,0,0,1,6,6.33,11.82,11.82,0,0,1,1,1.65,2.82,2.82,0,0,1,.23,2.16,3.41,3.41,0,0,1-1.57,1.71,7.75,7.75,0,0,1-2.06.79,16.36,16.36,0,0,1-4.21.42,22.72,22.72,0,0,1-4.17-.39,13.39,13.39,0,0,1-4-1.43,7.8,7.8,0,0,1-3.08-3,6.18,6.18,0,0,1-.63-2,5.83,5.83,0,0,1-.07-1,2.65,2.65,0,0,1,.05-.59,2.38,2.38,0,0,1,.2-.64,4.06,4.06,0,0,1,1.69-1.76,9.29,9.29,0,0,1,2-.89A23.32,23.32,0,0,1,73.58,16a14.63,14.63,0,0,1,4.14.82,3.41,3.41,0,0,1,1.85,1.41,1.78,1.78,0,0,1,.21,1.21,1.66,1.66,0,0,1-.82,1,5.64,5.64,0,0,1-2.1.59,15.59,15.59,0,0,1-2,.11C73.47,21.13,71.06,21.12,69.73,21.06Z"/><path class="cls-1" d="M66.25,56.12l-1.65.37-.32-1.32S69.91,45.3,74,38.27c4.53-7.85,8.79-21.06,8.93-22.09a2.26,2.26,0,0,1,2.5-1.94l.26,0a4.38,4.38,0,0,0,1.68-.57,1.64,1.64,0,0,0,.88-1.73,3.6,3.6,0,0,0-1.85-2.46c-3-2-8.3-2.54-11.47-2C72.06,8,71.05,9,71.28,10.94c.25,2.12,4,5.75,5.1,7,.64.73,2,2.34,2,2.34l-3.27-2.45c-.62-.39-5-3.4-6-6.69-.93-2.89,1.45-4.88,5.38-5.6,3.72-.69,9.69,0,13.24,2.3a5.55,5.55,0,0,1,2.76,3.86A3.59,3.59,0,0,1,88.6,15.3a6.9,6.9,0,0,1-2.72.91l-.32,0-.42,0s0,.06,0,.1C85,17.69,80.58,31.16,76,39.19,71.9,46.21,66.25,56.12,66.25,56.12Z"/></g></g></svg>