<svg width="243" height="68" xmlns="http://www.w3.org/2000/svg" xmlns:xlink="http://www.w3.org/1999/xlink" overflow="hidden"><defs><clipPath id="clip0"><rect x="335" y="935" width="243" height="68"/></clipPath></defs><g clip-path="url(#clip0)" transform="translate(-335 -935)"><path d="M35.4302 28.389C35.4302 28.389 35.4913 28.8377 35.0784 29.5719 34.6654 30.3061 32.8758 32.9675 30.974 33.1052 29.0722 33.2429 27.0073 32.8758 25.1922 31.1779 23.3771 29.4801 18.2173 24.1113 17.4576 23.8105 16.7948 23.5504 15.7139 23.7187 15.6935 23.7901 15.668 23.8614 16.1269 22.5715 17.1823 20.7819 18.2377 18.9923 18.3499 18.5079 18.6252 18.4671 18.9005 18.4212 22.3217 18.0337 22.9845 18.0541 23.6473 18.0745 29.0161 17.9165 29.8676 17.8043 30.714 17.687 33.2633 17.3658 33.2633 17.3658L33.1919 16.7489C33.1919 16.7489 30.9689 17.2078 29.7503 17.116 28.5318 17.0242 23.6473 17.1874 22.959 17.2078 22.2707 17.2282 19.288 17.4117 19.2421 17.3454 19.1962 17.2791 24.4019 8.377 24.8863 7.50514 25.3706 6.63328 26.8798 4.43068 27.201 4.40519 27.5222 4.3797 31.5909 3.83415 32.8758 1.38172 33.1052 0.948339 32.7636 0.244733 32.1773 0.076479 31.5552-0.107071 30.7751 0.076479 30.4794 0.244733 29.9084 0.571043 27.9301 1.68764 26.5331 3.48744 25.9825 4.20124 22.3574 4.12986 21.5314 4.10947 21.0776 4.09927 17.1619 4.06868 12.9963 3.51293 9.61596 3.05916 6.05713 2.1873 4.07888 1.24406 0.362-0.530254 0.127465 0.244733 0.127465 0.244733 0.127465 0.244733-0.790283 0.795381 2.33006 1.77431 5.4504 2.75324 10.4674 5.24646 18.7271 5.0782 24.0654 4.97113 25.0035 4.94564 25.1412 4.94054 25.1259 4.96094 20.5525 12.5069 17.6208 17.4576 17.5545 17.5698 12.981 17.3658 9.51908 17.3658 7.51023 17.3658 5.53708 16.9426 5.50139 16.9987 5.40451 17.1619 4.97623 18.1918 8.52995 18.3499 10.86 18.4569 17.0701 18.4722 17.0701 18.4722 17.0701 18.4722 16.2492 20.2312 16.0351 20.6136 13.9549 24.2846 11.6299 27.5273 11.0793 28.6286 10.5286 29.7299 8.69311 33.2174 8.69311 33.2174 8.69311 33.2174 8.08128 33.768 8.69311 34.0739 9.30494 34.3798 9.42731 33.9516 10.5286 32.1161 11.6299 30.2806 14.4494 24.82 16.3767 24.7996 17.7839 24.7843 20.7462 28.1392 21.047 28.5114 21.3529 28.8785 25.5746 34.3187 30.1021 34.1708 34.6297 34.0229 36.042 28.1443 36.042 28.1443L35.4302 28.389ZM29.1334 2.31986C29.7503 1.72333 30.9434 1.21856 30.9434 1.21856 30.9434 1.21856 31.7745 0.876959 31.7694 1.4684 31.7643 1.8253 30.2245 2.5493 29.1334 2.96229 27.7823 3.46705 28.5165 2.9164 29.1334 2.31986Z" stroke="#000000" stroke-width="0.679811" transform="matrix(1.0027 0 0 1 335.309 935)"/><path d="M33.2633 17.3709C33.2633 17.3709 36.8068 17.0446 36.7456 16.6469 36.6844 16.2492 36.4754 15.0868 33.717 15.5456 31.5144 15.9127 29.0518 15.0715 26.4005 19.2268 24.7843 21.7557 27.2316 25.0596 30.8414 23.53 33.4723 22.4134 34.9101 20.4403 35.4913 18.5436 36.0726 16.6469 35.3996 15.1785 34.7266 15.2091 34.0535 15.2397 32.7993 17.4117 33.3805 19.6143 33.9618 21.8169 33.8394 21.0827 33.8394 21.0827 33.8394 21.0827 34.8183 25.2432 37.7551 24.7537 40.0087 24.3764 41.8238 22.2146 41.8238 22.2146L41.8238 21.2357C41.8238 21.2357 40.1107 22.8264 39.3153 23.2241 38.5199 23.6218 36.5162 24.5396 35.6137 22.4899 34.6705 20.3434 34.5634 19.7775 34.39 18.2683 34.2728 17.2384 34.9713 16.5857 34.8183 17.6564 34.6654 18.7271 33.9618 20.6238 32.4016 21.5416 30.8414 22.4593 28.5471 23.9175 27.201 21.7251 26.0742 19.8845 29.2609 17.5494 29.6483 17.3811 30.3214 17.0905 32.7381 17.0905 32.7381 17.0905L33.2633 17.3709Z" stroke="#000000" stroke-width="0.679811" transform="matrix(1.0027 0 0 1 335.309 935)"/><path d="M58.2821 21.2C58.2821 21.2 58.7664 20.8278 56.5689 22.4848 54.7029 23.892 52.7399 24.1062 50.7514 23.8308 48.763 23.5555 46.3208 19.8845 45.9231 19.3951 45.5254 18.9056 45.2195 18.9515 45.2195 18.9515 45.2195 18.9515 45.2195 18.9515 45.2806 18.6915 45.4642 17.9012 50.1447 13.185 50.8177 12.7567 52.8725 11.4464 52.2861 12.8485 52.0108 13.9804 51.7355 15.1122 50.2671 18.0796 49.9918 18.4773 49.7164 18.875 49.5329 19.5174 49.5329 19.5174L49.9612 19.5174C49.9612 19.5174 51.3684 17.8043 52.2861 15.4488 53.2039 13.0932 53.6016 11.2271 51.7967 11.2577 49.9918 11.2883 45.6783 16.5806 44.1794 18.4467 43.9754 18.7017 43.8123 18.9311 43.6797 19.135 43.9754 18.4059 44.2048 17.6055 44.2405 16.7948 44.3629 14.0415 42.8639 12.4508 41.6708 12.3896 40.4778 12.3284 40.3248 17.2537 40.7531 21.1082 41.1814 24.9627 42.2521 25.5134 43.4757 25.5134 44.6994 25.5134 45.7701 24.1979 46.3819 23.7697 46.9938 23.3414 46.3819 23.2496 46.3819 23.2496 46.3819 23.2496 45.0665 24.9321 43.3891 24.6262 42.66 24.4937 42.2164 23.3924 41.936 22.0718 42.1705 21.7812 42.7263 21.047 43.231 20.0885 43.1239 20.5728 43.3483 20.7105 43.3483 20.7105 43.8072 21.2306 44.1437 20.9858 44.5719 20.3128 45.0002 19.6398 46.0403 20.8941 46.6471 21.8424 47.2538 22.7907 48.2123 24.0756 50.4455 24.5956 52.6787 25.1157 54.5703 24.565 55.7379 23.8869 56.9666 23.1731 58.5217 21.8424 58.5217 21.8424L58.2821 21.2ZM41.3955 17.4219C41.2426 15.9382 41.7014 13.6133 42.0073 13.6133 42.3133 13.6133 43.2616 14.3169 43.384 16.2135 43.5063 18.1102 41.8238 21.2306 41.8238 21.2306L41.8238 21.4753C41.5485 19.8998 41.472 18.1663 41.3955 17.4219Z" stroke="#000000" stroke-width="0.679811" transform="matrix(1.0027 0 0 1 335.309 935)"/><path d="M58.5268 21.8424C58.5268 21.8424 59.261 20.5881 59.2916 19.8539 59.3222 19.1197 60.0258 17.4678 59.0775 16.2135 58.1291 14.9593 56.6811 13.3889 54.8252 13.3379 52.9693 13.2869 51.9496 16.856 52.5614 18.1102 53.1733 19.3645 54.5601 20.5881 55.9775 20.6493 57.3949 20.7105 62.3813 20.1293 63.1767 20.8635 63.9721 21.5977 64.4616 22.2401 63.1767 22.546 61.8919 22.8519 60.9079 23.0763 59.2304 22.8519 57.553 22.6276 55.5594 22.4236 54.3052 22.1483 53.0509 21.873 50.8789 21.4447 50.1753 20.6493 49.4717 19.8539 48.6151 20.8023 49.2881 21.2917 49.7674 21.6384 51.608 22.5154 54.3052 23.0661 55.4116 23.2904 56.6352 23.321 58.0067 23.4637 59.5975 23.6269 60.6172 23.6779 61.5554 23.6167 63.865 23.4688 64.8338 22.8417 64.951 22.0871 65.1652 20.7105 63.2073 19.7622 61.8052 19.6908 60.9486 19.6449 56.8545 19.8845 56.263 19.8233 55.3759 19.7316 52.9285 18.3855 53.3262 16.55 53.7239 14.7146 54.3663 13.7356 56.2936 14.7757 58.2209 15.8159 58.8633 17.5239 58.6492 18.7221 58.435 19.9202 58.2821 21.2 58.2821 21.2L58.5268 21.8424Z" stroke="#000000" stroke-width="0.679811" transform="matrix(1.0027 0 0 1 335.309 935)"/><path d="M223.247 20.7411C224.721 20.4199 226.271 19.8743 226.322 18.9974 226.362 18.2224 225.74 17.2995 224.965 16.4991 224.965 16.4991 225.21 16.4583 225.343 16.3257 225.47 16.1982 225.491 15.9739 225.44 15.928 225.18 15.7088 224.761 15.4793 224.318 15.3468 223.91 15.2295 223.528 15.2397 223.528 15.2397 223.084 14.9083 222.686 14.6687 222.437 14.5616 221.488 14.1639 218.337 13.5827 217.511 15.5711 216.685 17.5596 219.347 20.4658 221.978 19.1197 221.978 19.1197 222.192 19.0891 222.192 19.2115 222.192 19.2472 222.166 19.6143 222.131 20.1191 221.07 20.3128 219.719 20.4709 218.031 20.5575 212.831 20.8329 207.997 20.9246 205.672 20.9858 203.347 21.047 193.527 21.0776 192.61 21.047 191.692 21.0164 181.566 20.9858 180.557 21.047 179.547 21.1082 170.37 20.9552 170.37 20.9552 170.37 20.9552 158.225 20.6799 156.695 20.6493 155.166 20.6187 142.745 20.3128 142.745 20.3128 142.745 20.3128 133.752 19.9763 132.589 19.9457 131.427 19.9151 122.249 19.7316 122.249 19.7316 122.249 19.7316 109.859 19.4257 109.034 19.3951 108.208 19.3645 99.6419 19.028 98.9077 19.0891 98.1735 19.1503 94.3496 19.1503 93.0035 19.2115 91.6575 19.2727 85.2027 19.1503 85.2027 19.1503 85.2027 19.1503 79.3903 18.9974 78.8396 18.9362 78.289 18.875 77.6414 18.2173 77.3253 18.5844 77.0143 18.9515 77.4018 19.4512 77.8964 19.7469 78.396 20.0426 78.3043 20.1803 78.2788 20.5473 78.2584 20.9144 77.9933 23.0049 76.2954 22.9437 74.5976 22.8876 73.9654 20.7309 73.9654 20.0783 73.9654 19.4257 74.1489 14.6891 74.1489 14.6891 74.1489 14.6891 73.6237 14.4137 73.4045 14.7095 73.1853 15.0103 70.3199 20.1038 70.0547 20.4556 69.7896 20.8125 68.8821 22.5103 68.6067 20.8584 68.3314 19.2064 67.8623 14.9032 67.8623 14.5718 67.8623 14.2404 67.9796 13.4807 67.3678 13.4246 66.7559 13.3685 66.5877 14.2404 66.1849 15.515 65.7821 16.7897 65.2213 19.1962 65.0377 19.6194 64.8542 20.0426 63.9364 22.6684 63.8803 23.0049 63.8242 23.3363 63.6305 23.5657 63.5591 23.1425 63.4877 22.7194 63.1359 18.9668 63.1359 18.9668L62.9881 15.7088 63.2073 10.8192C63.2073 10.8192 63.345 9.8097 62.8045 9.78421 62.2641 9.76381 62.1723 10.0136 62.0907 10.8753 62.0092 11.737 61.8511 14.9695 61.8511 15.7751 61.8511 16.5806 61.3259 20.4913 61.1373 20.9144 60.9537 21.3376 60.347 23.1731 60.3011 23.4026 60.2552 23.632 60.1278 24.1725 59.9697 24.2183 59.8066 24.2642 59.8422 24.2948 59.7964 23.9532 59.7505 23.6116 59.5006 22.4644 59.3273 21.8322 59.1539 21.2 58.6594 19.135 58.5217 18.6099 58.384 18.0796 57.8232 15.6476 57.7416 15.0307 57.66 14.4086 57.5938 14.3882 57.6702 13.8019 57.7518 13.2156 57.9711 12.5426 57.2573 11.6809 56.5435 10.8192 56.5027 11.2577 56.5027 11.2577 56.5027 11.2577 55.6155 11.5024 56.1356 12.1755 56.6556 12.8485 56.6862 15.6935 56.8392 16.3359 56.9921 16.9783 58.6135 23.6779 58.797 24.2897 58.9806 24.9016 58.9194 25.7275 59.5618 25.6969 60.2042 25.6663 60.7804 25.2228 61.6421 22.1483 62.2233 20.0681 62.2233 20.0681 62.2233 20.0681 62.2233 20.0681 62.5751 25.4318 63.7529 25.0851 64.2729 24.9321 64.5482 23.7085 65.4048 21.2917 66.2614 18.875 66.7814 16.1829 66.9344 16.2441 67.0874 16.3053 67.2709 22.8519 68.7393 22.7601 70.2077 22.6684 73.1751 16.8866 73.1751 16.8866 73.1751 16.8866 72.1656 23.6422 76.0201 23.6422 79.4158 23.6422 78.8957 19.8845 78.8957 19.8845L92.3254 20.2516 97.5566 20.0375 108.417 20.3128 121.418 20.7105 135.031 20.9552 144.943 21.2306 160.147 21.5671 167.55 21.8118 173.118 21.8118 180.766 21.9648 191.442 22.0259 206.279 21.8424 215.61 21.6894 220.627 21.1388C220.627 21.1388 221.238 21.0878 222.059 20.9603 221.988 21.9699 221.911 23.0966 221.911 23.4026 221.911 23.9838 221.514 32.6106 221.605 33.9261 221.697 35.2415 221.544 43.1341 221.575 44.8167 221.605 46.4992 221.483 49.9867 221.361 52.3116 221.238 54.6366 220.474 62.1621 220.351 63.141 220.229 64.12 219.801 66.2614 219.556 66.2614 219.311 66.2614 217.659 63.9976 217.292 61.948 216.925 59.8983 216.221 55.7685 216.558 52.3728 216.894 48.9771 217.72 44.5108 219.158 41.4822 220.596 38.4536 220.474 38.9125 220.474 38.9125 220.474 38.9125 220.841 37.9948 220.627 37.8418 220.412 37.6888 220.106 37.5971 219.954 38.0253 219.801 38.4536 216.711 44.1743 216.13 47.3252 215.548 50.4761 214.631 55.7991 215.824 60.296 217.017 64.793 219.189 69.1982 220.504 67.6992 221.82 66.2002 222.737 51.4551 222.829 49.5584 222.921 47.6617 222.982 38.9737 222.921 37.5971 222.86 36.2204 222.799 30.2245 222.89 28.5725 222.967 27.2418 223.099 22.9233 223.247 20.7411ZM220.8 18.4467C219.056 18.6303 218.506 16.6265 218.628 15.9229 218.75 15.2193 220.05 15.1428 220.05 15.1428 220.05 15.1428 220.203 15.1887 221.351 15.357 222.498 15.5252 222.941 16.4583 222.85 16.55 222.758 16.6418 222.62 16.8254 222.651 17.0854 222.681 17.3454 222.544 18.2632 220.8 18.4467ZM223.354 19.6092C223.538 18.5385 223.538 17.7737 223.936 17.4678 224.333 17.1619 225.445 18.4008 225.373 18.7526 225.307 19.0841 224.685 19.497 223.319 19.859 223.329 19.7571 223.344 19.6755 223.354 19.6092Z" stroke="#000000" stroke-width="0.679811" transform="matrix(1.0027 0 0 1 335.309 935)"/><path d="M122.127 1.12169C122.127 1.12169 117.018 1.25426 115.274 1.16248 113.53 1.07071 107.504 1.16248 106.341 1.16248 105.179 1.16248 104.628 1.4684 104.567 2.11082 104.506 2.75324 106.158 2.47792 106.525 2.96738 106.892 3.45685 107.443 3.39567 107.443 3.39567 108.146 3.15093 106.862 2.35555 106.862 2.35555 106.862 2.35555 109.89 2.172 110.93 2.23319 111.97 2.29437 118.456 2.26378 120.872 2.23319 123.289 2.20259 123.289 2.14141 123.35 1.49899 123.412 0.856564 122.127 1.12169 122.127 1.12169Z" stroke="#000000" stroke-width="0.679811" transform="matrix(1.0027 0 0 1 335.309 935)"/><path d="M114.907 6.02654C114.479 5.13939 114.265 3.73217 113.439 3.91572 112.613 4.09927 113.378 5.32294 113.378 5.32294 113.378 5.32294 113.469 6.08773 114.173 7.58671 114.877 9.0857 115.152 9.72812 115.427 10.34 115.702 10.9518 116.498 12.9096 115.886 13.4297 115.274 13.9498 112.643 13.8274 111.695 13.4297 110.747 13.032 108.605 12.2366 107.718 11.8695 106.831 11.5024 106.097 11.2883 105.913 11.7778 105.73 12.2672 106.127 12.512 107.106 12.7873 108.085 13.0626 111.511 14.378 112.001 14.531 112.49 14.684 115.091 14.8675 115.488 14.8369 115.886 14.8063 117.691 13.858 117.416 12.6343 117.14 11.4107 115.335 6.9137 114.907 6.02654Z" stroke="#000000" stroke-width="0.679811" transform="matrix(1.0027 0 0 1 335.309 935)"/><path d="M123.87 8.65742C123.87 8.65742 121.79 6.76074 121.056 6.82192 120.322 6.88311 119.068 8.3515 119.71 9.97286 120.352 11.5942 122.239 12.6751 123.35 11.8542 124.253 11.1863 124.819 10.3909 124.788 9.78421 124.758 9.17748 124.513 9.37122 124.513 9.37122L124.543 8.74919C124.543 8.74919 123.993 7.03607 124.788 7.03607 125.584 7.03607 126.012 7.9844 126.042 8.84097 126.073 9.69753 125.828 10.2482 126.868 12.4508 127.909 14.6534 127.327 13.9804 128.276 15.1734 128.561 15.5303 128.918 15.9688 128.612 16.1218 128.306 16.2747 127.694 16.4889 126.838 14.7146 125.981 12.9402 125.278 10.9518 125.278 10.9518 125.278 10.9518 124.696 12.3284 122.999 13.0014 122.142 13.343 118.915 12.8791 118.486 10.0952 118.068 7.39297 119.679 5.72063 120.536 5.72063 121.393 5.72063 122.677 6.14891 123.748 7.21961 124.819 8.29032 124.849 8.50446 124.849 8.50446 124.849 8.50446 124.319 9.05001 123.87 8.65742Z" stroke="#000000" stroke-width="0.679811" transform="matrix(1.0027 0 0 1 335.309 935)"/><path d="M130.172 9.54457C130.172 9.54457 130.937 10.86 131.304 12.6955 131.671 14.531 131.523 16.6571 132.436 16.3665 132.895 16.2186 132.773 15.4793 132.864 14.0109 132.956 12.5426 133.537 8.81038 134.18 8.84097 134.822 8.87156 136.031 9.95756 136.704 11.5177 137.377 13.0779 139.289 17.1313 140.329 16.856 141.369 16.5806 141.981 15.2958 142.042 14.1945 142.103 13.0932 142.195 11.8389 142.195 11.8389L141.981 9.78421C141.981 9.78421 141.644 11.9613 141.614 12.6955 141.583 13.4297 140.997 16.1524 140.247 15.7547 139.207 15.204 137.988 11.7115 137.208 10.3705 136.459 9.0857 135.444 7.82635 134.057 7.86204 132.39 7.90793 132.283 11.7472 132.283 12.1143 132.283 12.4814 132.196 12.359 132.196 12.359 132.196 12.359 131.799 7.84674 130.172 7.84674 129.866 7.84674 129.958 9.42221 129.958 9.42221L130.172 9.54457Z" stroke="#000000" stroke-width="0.679811" transform="matrix(1.0027 0 0 1 335.309 935)"/><path d="M141.292 8.55035C141.292 8.55035 141.323 11.0742 141.522 11.9307 141.721 12.7873 142.975 15.9382 144.948 15.6323 146.651 15.3672 147.227 13.9039 147.304 13.8427 147.38 13.7815 147.487 13.7662 147.533 13.8886 147.579 14.0109 149.338 16.2441 151.586 16.1218 153.835 15.9994 155.15 15.7088 155.15 15.7088L154.707 15.2499C154.707 15.2499 153.33 15.3723 152.55 15.3417 151.77 15.3111 149.858 15.4335 148.65 13.7815 147.655 12.4202 147.839 10.6459 147.778 9.88108 147.717 9.11629 147.778 7.72438 147.044 7.73967 146.309 7.75497 146.401 8.42798 146.508 9.68224 146.615 10.9365 147.013 12.6496 146.722 13.3685 146.284 14.4545 145.636 14.8216 144.856 14.791 144.076 14.7604 142.807 13.8733 142.608 12.0378 142.409 10.2023 142.776 7.55612 141.919 7.57142 141.063 7.58671 141.292 8.55035 141.292 8.55035Z" stroke="#000000" stroke-width="0.679811" transform="matrix(1.0027 0 0 1 335.309 935)"/><path d="M155.15 15.7088C155.15 15.7088 157.521 14.9899 158.317 13.3226 159.112 11.6554 157.934 9.60576 156.94 9.00922 155.946 8.41269 155.563 8.15266 155.273 8.10677 154.982 8.06088 152.932 8.07618 152.565 9.37632 152.198 10.6765 152.03 12.2825 152.336 13.032 152.642 13.7815 154.187 16.2135 155.579 16.2135 156.971 16.2135 158.057 15.1887 158.408 14.2557 158.76 13.3226 158.76 13.3226 158.76 13.3226L159.112 11.7319C159.112 11.7319 159.663 12.6343 159.999 13.7968 160.336 14.9593 161.299 17.1466 161.789 16.963 162.278 16.7795 162.232 16.4736 162.324 16.0606 162.416 15.6476 163.089 13.7968 163.257 13.2309 163.425 12.6649 163.808 11.2271 164.022 11.2118 164.236 11.1965 164.19 10.6918 164.19 10.6918 164.19 10.6918 163.211 10.3858 163.104 10.7988 162.997 11.2118 162.171 13.5521 162.095 14.0262 162.018 14.5004 161.926 15.4793 161.743 15.4946 161.559 15.5099 161.391 14.5616 161.269 14.1945 161.146 13.8274 159.433 9.71283 159.341 9.59046 159.25 9.4681 158.99 8.99393 158.561 9.26925 158.133 9.54457 158.531 10.0952 158.515 10.34 158.5 10.5847 157.368 14.7604 157.032 14.9593 156.695 15.1581 154.707 14.9899 154.187 14.1333 153.667 13.2767 153.162 12.9708 153.238 11.7472 153.315 10.5235 153.407 8.87156 154.615 9.02452 155.823 9.17748 156.986 9.8199 157.368 10.8294 157.751 11.8389 158.526 13.0473 155.961 14.5157 154.921 15.1122 154.707 15.2499 154.707 15.2499L155.15 15.7088Z" stroke="#000000" stroke-width="0.679811" transform="matrix(1.0027 0 0 1 335.309 935)"/><path d="M164.022 11.2118C164.022 11.2118 164.664 12.048 165.286 12.9402 165.903 13.8376 167.509 16.1269 167.509 16.1269 167.509 16.1269 168.014 16.2135 168.244 16.1269 168.473 16.0402 168.657 15.464 168.498 15.2601 168.335 15.0511 167.739 14.7859 168.152 13.6897 168.565 12.5935 169.182 11.8135 169.829 11.8491 170.472 11.8848 170.171 11.8491 170.171 11.8491 170.171 11.8491 170.375 12.2978 170.63 12.0021 170.88 11.7013 170.834 11.1047 170.145 11.0589 169.457 11.013 167.836 11.6248 167.28 13.6133 167.163 14.0211 165.235 10.9008 165.031 10.809 164.827 10.7173 164.827 10.7173 164.827 10.7173L164.756 10.5796C164.756 10.5796 163.976 9.79951 163.379 10.3298 162.783 10.8549 163.379 11.2475 163.379 11.2475L164.022 11.2118Z" stroke="#000000" stroke-width="0.679811" transform="matrix(1.0027 0 0 1 335.309 935)"/><path d="M172.098 11.4056C172.098 11.4056 171.823 11.7472 171.915 11.9103 172.006 12.0735 172.164 12.3692 172.486 12.1398 172.807 11.9103 173.148 13.9039 173.22 14.1333 173.291 14.3628 174.046 16.3359 174.943 16.29 175.84 16.2441 177.054 14.2047 177.054 14.2047 177.054 14.2047 177.258 14.1588 177.258 14.4137 177.258 14.6636 178.543 23.2037 178.543 23.2037 178.543 23.2037 178.543 22.8825 178.66 23.2037 178.772 23.5249 180.404 28.5725 180.541 29.7401 180.679 30.9128 181.321 33.87 180.149 34.4206 178.976 34.9713 174.78 34.5838 172.853 33.4366 170.925 32.2894 168.177 30.2449 167.78 28.5929 167.55 27.6293 167.117 28.2972 167.295 28.6847 167.479 29.0773 169.085 32.218 170.37 33.044 171.655 33.87 174.754 35.5882 176.84 35.7718 178.925 35.9553 182.117 35.9808 182.188 33.457 182.26 30.9332 181.408 27.4254 180.878 25.702 180.348 23.9787 179.756 21.9852 179.501 20.5626 179.251 19.1401 178.996 18.0388 178.538 15.7445 178.079 13.4501 178.334 10.9722 178.512 9.57517 178.696 8.17305 178.329 7.83145 178.033 7.80595 177.732 7.78046 177.436 7.20942 177.299 9.4579 177.161 11.7064 176.172 15.1479 175.3 15.3111 174.428 15.4742 174.036 13.3838 173.694 12.0072 173.347 10.6306 172.868 10.1258 172.297 10.2839 171.726 10.4419 171.95 11.0385 172.042 11.1557 172.144 11.2679 172.098 11.4056 172.098 11.4056Z" stroke="#000000" stroke-width="0.679811" transform="matrix(1.0027 0 0 1 335.309 935)"/><path d="M209.527 6.39364C208.701 6.14891 208.64 6.73015 208.517 7.58671 208.502 7.67849 208.502 7.76007 208.507 7.83145 208.16 7.22471 207.712 6.62818 207.171 6.08773 204.724 3.6404 203.072 6.33246 202.246 7.95381 201.853 8.7288 201.68 10.6561 201.971 12.5171 200.951 12.3233 199.631 11.7421 198.305 11.1761 198.968 9.73832 199.095 7.96911 198.978 5.85829 198.794 2.56459 195.643 0.739297 193.624 1.93237 189.907 4.12986 190.168 7.04116 190.229 8.32601 190.29 9.61086 190.565 9.78931 190.565 9.78931 190.565 9.78931 190.81 9.76381 190.993 9.78931 191.177 9.8148 190.932 8.3566 191.146 6.70466 191.361 5.05271 192.554 3.73727 194.664 2.9113 196.775 2.08533 198.274 5.57277 197.968 8.08128 197.856 9.01432 197.637 9.88618 197.224 10.7224 196.143 10.2839 195.113 9.92697 194.302 9.88618 192.105 9.76381 189.127 13.1595 189.586 15.3315 190.234 18.3957 194.481 14.9338 196.622 13.2818 197.153 12.874 197.571 12.4151 197.907 11.9052 198.611 12.2417 199.345 12.6037 200.11 12.9147 200.9 13.2309 201.568 13.4348 202.185 13.5419 202.608 15.1734 203.449 16.5551 204.882 16.7693 208.186 17.2588 211.735 15.5456 212.071 11.8135 212.301 9.20297 210.353 6.63837 209.527 6.39364ZM193.007 14.8063C189.398 16.9783 190.346 13.7356 192.518 11.7166 193.833 10.4929 195.251 10.7529 196.821 11.4158 196.077 12.568 194.894 13.6693 193.007 14.8063ZM204.785 6.39364C206.407 6.11832 207.6 7.86204 208.15 10.1258 208.64 12.1449 205.31 12.6547 203.108 12.6088 202.985 12.0174 202.929 11.482 202.919 11.1659 202.889 10.2176 203.164 6.66897 204.785 6.39364ZM210.812 11.8389C210.934 14.3475 208.181 15.4488 207.324 15.7241 206.468 15.9994 206.131 15.9688 204.755 15.4793 204.107 15.2499 203.669 14.4851 203.383 13.6438 204.551 13.6337 205.662 13.3022 207.294 12.8485 209.45 12.2468 209.695 10.238 208.726 8.24953 208.92 8.34641 209.18 8.23933 209.282 7.9844 209.466 7.52553 209.863 8.10677 210.322 9.05511 210.781 10.0034 210.689 9.33043 210.812 11.8389Z" stroke="#000000" stroke-width="0.679811" transform="matrix(1.0027 0 0 1 335.309 935)"/><path d="M220.805 12.9453C221.192 12.6343 221.503 12.3488 221.697 12.1449 222.656 11.1404 223.625 6.65367 219.862 3.18152 216.945 0.489465 214.437 2.33516 213.392 4.92525 212.591 6.9137 213.774 10.4317 213.774 10.4317 213.805 10.4878 213.927 10.5694 214.279 10.3247 214.631 10.0799 214.483 9.4579 214.325 7.12784 214.126 4.22164 216.13 3.15093 217.078 3.21212 218.026 3.2733 221.422 4.98643 221.514 8.81038 221.549 10.3451 220.917 11.4515 220.081 12.2519 219.709 11.9001 219.311 11.5228 218.883 11.1353 217.562 9.92697 215.666 9.95756 214.299 10.549 213.004 11.1098 212.494 12.5578 212.795 13.1544 214.442 16.4379 217.807 15.0409 219.964 13.5674 220.509 14.1435 220.963 14.6687 220.963 14.7146 220.963 14.8063 223.135 15.2958 223.135 15.2958 223.135 15.2958 222.258 14.3526 220.805 12.9453ZM214.207 12.0837C215.38 10.6612 217.664 11.7166 218.307 12.0531 218.521 12.1653 218.893 12.4967 219.291 12.8842 218.184 13.6235 216.966 13.9549 216.41 14.0415 215.248 14.2251 213.035 13.5062 214.207 12.0837Z" stroke="#000000" stroke-width="0.679811" transform="matrix(1.0027 0 0 1 335.309 935)"/><path d="M241.684 15.3978C241.363 14.9134 240.741 15.3774 239.848 15.8974 238.951 16.4226 237.482 16.1779 237.029 15.8974 236.641 15.6629 234.688 13.756 233.475 12.6904 233.475 12.6904 233.475 12.6904 233.475 12.6904 235.31 11.222 236.045 9.70773 235.999 6.9086 235.953 4.10947 233.791 2.33006 230.839 2.36065 227.846 2.39124 226.755 3.72198 226.143 4.88446 225.531 6.04694 226.067 8.17305 226.067 8.17305 226.067 8.17305 226.138 8.67781 226.572 8.67781 227.005 8.67781 226.837 8.58604 226.735 7.07176 226.597 5.0986 227.928 3.76786 230.084 3.42116 232.241 3.07445 234.811 4.54795 234.785 7.68869 234.775 9.40182 233.755 10.7733 232.435 11.9052 231.456 11.3597 230.232 11.222 229.233 11.222 228.06 11.222 225.333 13.8835 226.572 15.4691 227.607 16.7948 230.462 14.9848 232.44 13.496 233.062 14.0007 233.755 14.7197 234.739 15.6986 237.131 18.0796 239.053 17.3709 239.813 16.9579 240.562 16.545 242.005 15.877 241.684 15.3978ZM228.927 14.2965C226.495 15.7751 227.55 12.7159 229.59 12.5731 230.263 12.5273 230.793 12.5935 231.283 12.7873 230.492 13.3481 229.666 13.8478 228.927 14.2965Z" stroke="#000000" stroke-width="0.679811" transform="matrix(1.0027 0 0 1 335.309 935)"/><path d="M98.0817 12.5731C97.0722 12.2672 96.2156 11.533 94.5943 10.34 94.3394 10.1513 94.0997 9.92187 93.8754 9.66694 94.9308 8.13226 97.1742 6.8933 97.9288 6.33246 98.1888 6.13871 98.5916 5.99595 98.9995 5.88378 99.0352 6.28657 98.9995 6.65367 98.9995 6.9137 98.9995 7.58671 99.3972 7.77026 99.3972 7.77026 99.3972 7.77026 99.8254 8.62683 99.7643 6.48542 99.7541 6.20499 99.7286 5.95006 99.6827 5.71043 100.427 5.53708 100.825 5.4504 99.6113 5.29234 99.6011 5.29234 99.5909 5.29234 99.5807 5.29234 99.1983 4.0126 98.3316 3.41096 97.8982 2.99798 97.3475 2.47792 93.8601 0.917748 91.9634 2.47792 90.0667 4.03809 91.4739 7.31139 92.6058 9.54457 92.6364 9.60576 92.6772 9.66694 92.7129 9.72303 92.3764 10.5643 92.1368 11.482 92.1572 11.8695 92.1827 12.3029 91.9991 13.6897 92.667 14.842 91.061 14.842 89.7404 14.2659 88.6595 13.5827 87.9661 13.1442 87.1911 12.0888 86.3091 11.1251 86.4212 10.9926 86.5334 10.8651 86.6405 10.7376 88.476 8.59624 88.9654 4.3746 86.6405 2.63088 84.3155 0.887156 82.5412 2.26378 81.134 3.70158 79.7268 5.13939 80.4304 8.65742 80.4304 8.65742 80.4304 8.65742 80.6445 8.93274 81.0422 8.87156 81.4399 8.81038 81.3175 7.6479 81.2869 6.60778 81.2564 5.56767 81.2869 4.43578 83.0307 3.39567 84.4073 2.57989 87.0637 3.00307 86.977 6.5466 86.9362 8.14756 86.4263 9.41201 85.687 10.4878 85.274 10.0952 84.8407 9.74852 84.3767 9.51398 82.633 8.62683 80.8587 8.87666 80.0327 9.78421 79.1761 10.7325 79.2373 15.3264 80.7669 15.6017 82.011 15.826 83.9025 13.8835 85.5494 12.0021 86.4365 13.0167 87.3696 14.2047 88.5677 14.842 89.9903 15.5915 92.3662 15.3927 93.0137 15.3162 93.4522 15.8159 94.115 16.2288 95.1143 16.4277 98.5406 17.1007 99.6113 16.3359 100.315 15.2958 101.019 14.2557 99.0913 12.8791 98.0817 12.5731ZM82.4188 13.8274C80.3386 15.6629 80.6139 14.0721 80.3998 12.1143 80.1857 10.1564 81.3175 9.97286 83.153 10.2176 83.8108 10.3043 84.3971 10.7682 84.9885 11.3852 84.2033 12.2876 83.2856 13.0626 82.4188 13.8274ZM92.2693 3.90043C92.7588 1.4684 96.4298 3.24271 97.837 4.03809 98.4437 4.3797 98.7445 4.83857 98.8873 5.30254 96.8224 5.54727 94.2731 7.6224 93.646 8.13736 93.4981 8.25973 93.3451 8.46877 93.1922 8.7288 92.3764 7.35218 91.9379 5.54218 92.2693 3.90043ZM95.3285 15.6221C93.3706 15.2703 93.0035 12.9759 93.34 10.8957 93.3553 10.8039 93.3808 10.7173 93.4063 10.6255 94.9869 12.2366 97.8217 13.3277 99.0913 14.2914 100.621 15.4488 97.2863 15.9688 95.3285 15.6221Z" stroke="#000000" stroke-width="0.679811" transform="matrix(1.0027 0 0 1 335.309 935)"/></g></svg>